<?xml version="1.0" encoding="UTF-8" standalone="no"?>
<!-- Created with Inkscape (http://www.inkscape.org/) -->

<svg
   xmlns:dc="http://purl.org/dc/elements/1.1/"
   xmlns:cc="http://creativecommons.org/ns#"
   xmlns:rdf="http://www.w3.org/1999/02/22-rdf-syntax-ns#"
   xmlns:svg="http://www.w3.org/2000/svg"
   xmlns="http://www.w3.org/2000/svg"
   xmlns:sodipodi="http://sodipodi.sourceforge.net/DTD/sodipodi-0.dtd"
   xmlns:inkscape="http://www.inkscape.org/namespaces/inkscape"
   width="632.63818mm"
   height="296.2644mm"
   viewBox="0 0 632.63818 296.2644"
   version="1.1"
   id="svg8"
   inkscape:version="0.92.2 2405546, 2018-03-11"
   sodipodi:docname="chalmersverateam.svg"
   inkscape:export-filename="/home/e/Downloads/chalmersverateam.svg.png"
   inkscape:export-xdpi="400"
   inkscape:export-ydpi="400">
  <defs
     id="defs2" />
  <sodipodi:namedview
     id="base"
     pagecolor="#ffffff"
     bordercolor="#666666"
     borderopacity="1.0"
     inkscape:pageopacity="0.0"
     inkscape:pageshadow="2"
     inkscape:zoom="0.35"
     inkscape:cx="302.02815"
     inkscape:cy="728.13794"
     inkscape:document-units="mm"
     inkscape:current-layer="layer1"
     showgrid="false"
     fit-margin-top="0"
     fit-margin-left="0"
     fit-margin-right="0"
     fit-margin-bottom="0"
     inkscape:pagecheckerboard="true"
     inkscape:window-width="1366"
     inkscape:window-height="768"
     inkscape:window-x="0"
     inkscape:window-y="0"
     inkscape:window-maximized="1" />
  <metadata
     id="metadata5">
    <rdf:RDF>
      <cc:Work
         rdf:about="">
        <dc:format>image/svg+xml</dc:format>
        <dc:type
           rdf:resource="http://purl.org/dc/dcmitype/StillImage" />
        <dc:title />
      </cc:Work>
    </rdf:RDF>
  </metadata>
  <g
     inkscape:label="Layer 1"
     inkscape:groupmode="layer"
     id="layer1"
     transform="translate(198.53623,-20.213084)">
    <g
       id="g112"
       transform="translate(0,-0.09449405)">
      <path
         style="fill:#fdfdfd;stroke-width:0.35277778"
         d="m 77.132356,316.14354 c -13.092306,-1.19979 -26.294722,-9.07182 -33.552253,-20.00576 -6.710768,-10.1102 -9.603856,-22.63615 -7.762635,-33.60921 1.841324,-10.97364 6.097983,-19.37338 13.591536,-26.82041 5.903024,-5.86636 13.288617,-9.98791 21.737097,-12.13043 4.573983,-1.15995 9.997281,-1.65384 13.809906,-1.25763 4.962168,0.51566 5.677447,0.63316 8.528233,1.40087 3.419189,0.92079 4.080094,1.19793 26.51061,11.11696 17.72769,7.83939 24.43431,10.79496 26.81111,11.81554 3.12547,1.34204 3.68748,1.76399 2.34957,1.76399 -0.5316,0 -1.55638,0.30091 -2.27728,0.66868 l -1.31071,0.66868 -12.34537,-5.26208 c -6.78995,-2.89413 -15.10385,-6.44639 -18.47533,-7.89391 -3.37148,-1.44751 -6.24817,-2.55879 -6.39263,-2.4695 -0.49073,0.30329 -0.71674,2.38554 -0.31189,2.87336 0.5213,0.62812 1.76695,0.60947 2.62469,-0.0393 1.19376,-0.90291 1.65763,-0.68111 1.04663,0.50043 -0.68923,1.33281 -0.68315,2.2803 0.0183,2.86249 0.4617,0.38318 0.82248,0.36335 2.11667,-0.11631 1.7556,-0.65067 1.84134,-0.54841 0.87246,1.04059 -0.67843,1.11264 -0.67839,1.13181 0.004,1.9991 0.67607,0.85948 0.71498,0.86542 2.10122,0.32089 0.77682,-0.30514 1.5061,-0.4611 1.62062,-0.34658 0.11452,0.11452 -0.20468,0.74957 -0.70935,1.41122 -1.06229,1.39274 -1.12054,1.7635 -0.37433,2.3828 0.42272,0.35082 0.8316,0.36234 1.84314,0.0519 1.81949,-0.55842 2.25173,0.004 1.00371,1.30714 -0.63709,0.66499 -0.93853,1.31348 -0.86197,1.85441 0.10906,0.77067 0.25387,0.82348 1.9698,0.7184 1.01864,-0.0624 1.85208,0.009 1.85208,0.1596 0,0.15016 -0.50354,0.79254 -1.11898,1.42751 -0.99658,1.0282 -1.07458,1.25194 -0.71312,2.04527 0.34992,0.76798 0.63788,0.89259 2.08912,0.90401 l 1.68326,0.0132 -1.32293,1.13329 c -0.72762,0.6233 -1.32293,1.40551 -1.32292,1.73823 2e-5,0.79501 1.06122,1.33533 2.62266,1.33533 1.59223,0 1.59693,0.43583 0.0148,1.36933 -2.13735,1.26106 -1.97962,2.57797 0.36138,3.01715 1.75114,0.32851 1.80425,0.78017 0.18866,1.60438 -1.0549,0.53817 -1.42358,0.94161 -1.42358,1.55783 0,1.00974 0.49517,1.45387 2.11667,1.8985 l 1.23472,0.33858 -1.05833,0.39857 c -1.72201,0.64851 -2.11037,0.95777 -2.23194,1.77735 -0.15048,1.01451 0.44517,1.69681 1.72715,1.97838 1.36147,0.29903 1.31267,0.76094 -0.11257,1.06569 -1.51893,0.32478 -2.02847,0.7785 -2.02847,1.80627 0,0.60774 0.37459,1.07166 1.3118,1.62464 l 1.31181,0.77398 -1.49361,0.25498 c -1.9343,0.33022 -2.18835,0.50927 -2.18835,1.54223 0,0.59233 0.38086,1.1046 1.23035,1.65488 0.6767,0.43834 1.23232,0.91605 1.23472,1.06158 0.002,0.14552 -0.71341,0.26458 -1.59069,0.26458 -1.36327,0 -1.65404,0.12944 -2.00093,0.89077 -0.3633,0.79737 -0.28127,1.01932 0.78232,2.11667 l 1.18819,1.22589 h -1.58615 c -2.6657,0 -3.1445,1.15843 -1.28629,3.11214 l 1.14653,1.20544 -1.69772,-0.24343 c -2.61458,-0.3749 -3.49946,0.82683 -2.00644,2.72489 0.38805,0.49333 0.70555,1.0082 0.70555,1.14416 0,0.23733 -1.11171,0.046 -2.233,-0.38425 -0.29704,-0.11398 -0.86249,0.12265 -1.27225,0.53241 l -0.73758,0.73758 0.7103,1.39231 c 0.92829,1.81959 0.90623,1.89263 -0.3719,1.23168 -1.29196,-0.6681 -2.4085,-0.56603 -2.93124,0.26796 -0.37425,0.59707 -0.33112,0.80253 0.68262,3.25227 0.26476,0.63982 0.19728,0.63223 -1.00929,-0.11347 -1.83902,-1.13658 -2.86676,-0.90838 -2.9839,0.66253 -0.1834,2.45953 0.0581,2.45491 6.03891,-0.1155 3.01243,-1.29466 5.57835,-2.35394 5.70203,-2.35394 0.12369,0 2.79205,-1.09734 5.92968,-2.43853 3.13763,-1.34118 7.99401,-3.41484 10.79194,-4.60811 2.79795,-1.19328 5.55329,-2.41065 6.12303,-2.70526 0.99836,-0.51627 1.07333,-0.49736 2.06999,0.52207 0.56879,0.58175 0.90904,1.13214 0.75615,1.22308 -0.1529,0.0909 -2.89736,1.23006 -6.09882,2.53139 -3.20146,1.30132 -5.97959,2.48599 -6.17361,2.6326 -0.19403,0.1466 -1.62278,0.78609 -3.175,1.42109 -1.55223,0.63501 -4.8066,1.99061 -7.23195,3.01244 -2.42535,1.02185 -7.29983,3.07072 -10.83219,4.55305 -3.53236,1.48233 -8.10198,3.4794 -10.15471,4.43794 -8.374414,3.91047 -16.576342,5.38935 -25.403374,4.58043 z m 4.762499,-3.09719 c 0,-0.48528 -0.820109,-1.12889 -1.438472,-1.12889 -0.680762,0 -1.490789,0.8337 -1.145505,1.17899 0.331643,0.33164 2.583977,0.28797 2.583977,-0.0501 z m 4.506317,-0.13355 c -0.259045,-0.77713 -1.283762,-1.19812 -1.92768,-0.79194 -1.163924,0.73418 -0.930095,1.20771 0.596363,1.20771 0.971614,0 1.422926,-0.14094 1.331317,-0.41577 z m -8.980844,-0.46617 c -0.03564,-0.19403 -0.363051,-0.55081 -0.727572,-0.79284 -0.534035,-0.35459 -0.788868,-0.34785 -1.312005,0.0347 -0.37658,0.27536 -0.538625,0.65372 -0.385851,0.90092 0.310561,0.50249 2.520071,0.37244 2.425428,-0.14276 z m 13.62323,-0.0373 c 0.374526,-0.36947 -0.689882,-0.88901 -1.606183,-0.78399 -0.652555,0.0748 -1.054661,0.3505 -1.135991,0.7789 -0.111894,0.5894 0.02505,0.63493 1.231706,0.40951 0.746679,-0.13949 1.42639,-0.32148 1.510468,-0.40442 z m -17.968147,-0.67578 c 0,-0.2952 -0.402738,-0.72023 -0.894976,-0.94451 -0.734356,-0.33459 -0.998999,-0.30375 -1.47459,0.17184 -0.537636,0.53763 -0.517528,0.60442 0.277615,0.92214 1.279786,0.51138 2.091951,0.45335 2.091951,-0.14947 z m 21.130055,0.14385 c 1.174122,-0.4093 1.274004,-0.89351 0.309767,-1.50174 -0.706727,-0.44579 -1.684267,0.2694 -1.684267,1.23226 0,0.77997 -0.05753,0.76869 1.3745,0.26948 z m -25.562489,-0.98149 c 0.107425,-0.17381 -0.09228,-0.6712 -0.443787,-1.10529 -0.543959,-0.67176 -0.753763,-0.7279 -1.40922,-0.37711 -1.020547,0.54618 -0.97113,0.87725 0.200025,1.34003 1.274632,0.50367 1.421853,0.51635 1.652982,0.14237 z m 29.779792,-0.42403 c 1.201039,-0.41869 1.462211,-1.16633 0.532109,-1.52325 -1.170552,-0.44918 -2.61445,0.67191 -2.047293,1.58959 0.245392,0.39706 0.177331,0.40004 1.515184,-0.0663 z m -33.889176,-1.78021 c 0.05568,-0.28685 -0.306194,-0.73959 -0.804161,-1.00609 -0.785876,-0.42059 -0.979452,-0.4105 -1.466366,0.0764 -0.51277,0.51277 -0.473989,0.60801 0.451386,1.10855 1.153029,0.62369 1.673285,0.57253 1.819141,-0.17887 z m 38.217637,-0.14753 c 0.86844,-0.44909 0.98784,-0.64504 0.64484,-1.05833 -0.60413,-0.72793 -1.65787,-0.62485 -2.10234,0.20565 -0.34425,0.64324 -0.2258,1.40382 0.21863,1.40382 0.0952,0 0.65269,-0.24801 1.23887,-0.55114 z m -42.02304,-1.8983 c 0,-1.02968 -1.340263,-1.84664 -2.239762,-1.36524 -0.699085,0.37414 -0.690005,0.40876 0.319123,1.2162 1.26414,1.01147 1.920639,1.06242 1.920639,0.14904 z m 46.67089,-0.0962 c 1.16116,-0.4201 1.11135,-0.82418 -0.19964,-1.61964 -0.90656,-0.55006 -0.9968,-0.54374 -1.6565,0.11606 -0.85374,0.85386 -0.62312,2.46814 0.29897,2.0928 0.31405,-0.12783 1.01478,-0.39298 1.55717,-0.58922 z m -50.404295,-2.26789 c 0.234562,-0.61125 -0.682953,-1.89316 -1.348356,-1.88386 -0.21246,0.003 -0.62442,0.16548 -0.915461,0.36112 -0.444606,0.29887 -0.360045,0.49504 0.529166,1.22757 1.250668,1.0303 1.440184,1.06255 1.734651,0.29517 z m -3.327552,-3.7036 c 0.0057,-0.61852 -0.684706,-1.00788 -1.787341,-1.00788 -0.942781,0 -0.843905,0.64608 0.254698,1.66423 0.971236,0.90011 1.520328,0.66496 1.532643,-0.65635 z M 50.438572,297.672 c 0.152365,-0.78579 -0.559272,-1.62951 -1.374425,-1.62951 -1.04001,0 -1.168534,0.69535 -0.299502,1.62039 0.887236,0.94442 1.491929,0.94772 1.673927,0.009 z m -2.693035,-4.26231 c -0.279604,-0.61367 -0.687366,-0.89498 -1.297283,-0.89498 -1.095054,0 -1.14075,0.64378 -0.136338,1.92069 0.67868,0.8628 0.806982,0.90368 1.297287,0.41338 0.441074,-0.44108 0.466894,-0.7136 0.136334,-1.43909 z m -2.390189,-2.76806 c 0.522563,-0.82843 -0.143919,-1.80086 -1.331489,-1.94271 -1.103126,-0.13176 -1.109543,-0.10287 -0.336917,1.51734 0.626336,1.31345 1.041464,1.41929 1.668406,0.42537 z m -1.927334,-3.9308 c 0.645438,-0.77771 0.295176,-1.72702 -0.776228,-2.10381 -1.27786,-0.4494 -1.481081,-0.15495 -0.935111,1.35489 0.486085,1.34425 1.022452,1.57898 1.711339,0.74892 z m -1.599992,-4.39732 c 0.821309,-0.90754 0.204985,-2.14602 -1.067961,-2.14602 -0.758807,0 -0.858954,0.11951 -0.665152,0.79375 0.125484,0.43656 0.305629,1.07156 0.400322,1.41111 0.221887,0.79564 0.573546,0.78011 1.332791,-0.0588 z m 44.122536,-2.88141 c 3.737197,-1.39826 5.984215,-4.71908 5.96888,-8.82127 -0.03136,-8.39086 -9.475886,-12.65418 -15.955133,-7.20225 -1.461904,1.23011 -2.362909,2.8029 -2.881006,5.02905 -0.500817,2.15191 -0.09355,4.48791 1.250241,7.17108 1.967576,3.9287 6.951469,5.569 11.617018,3.82339 z m -45.307509,-1.04091 c 0.9132,-0.48873 0.86392,-1.5843 -0.101689,-2.26064 -1.060238,-0.74262 -1.333482,-0.69229 -1.327799,0.24458 0.0057,0.93684 0.362772,2.38125 0.588688,2.38125 0.08714,0 0.4655,-0.16433 0.8408,-0.36519 z m -0.100105,-5.76799 c -0.05471,-0.36582 -0.456663,-0.90112 -0.893226,-1.18956 -0.777755,-0.51386 -0.79375,-0.49631 -0.79375,0.87091 0,0.76744 0.09649,1.49184 0.214422,1.60977 0.402135,0.40213 1.572345,-0.6239 1.472554,-1.29112 z m -0.139093,-3.83279 c 0.462082,-0.73375 -0.05649,-1.78669 -0.968333,-1.96615 -0.46271,-0.0911 -0.57955,0.18086 -0.57955,1.34879 0,1.16793 0.11684,1.43984 0.57955,1.34878 0.318753,-0.0627 0.7545,-0.39187 0.968333,-0.73142 z m 0.716467,-4.60442 c 0.272094,-0.43135 0.153801,-0.78457 -0.493511,-1.4736 -0.622695,-0.66283 -0.91833,-0.78554 -1.100628,-0.45683 -0.224917,0.40556 -0.448674,2.18352 -0.354814,2.81931 0.06073,0.41136 1.560153,-0.2725 1.948953,-0.88888 z m 0.837985,-4.67546 c 0.05705,-0.39876 -0.216729,-1.01503 -0.60839,-1.36948 -0.69554,-0.62945 -0.720538,-0.62231 -1.073863,0.30701 -0.606054,1.59405 -0.468626,2.02304 0.60839,1.89911 0.663406,-0.0763 1.002933,-0.34086 1.073863,-0.83664 z m 1.280378,-4.14668 c 0.43476,-0.68923 -0.104016,-1.83108 -0.863984,-1.83108 -0.709027,0 -1.253702,1.94694 -0.651309,2.32812 0.617852,0.39096 1.04316,0.25145 1.515293,-0.49704 z m 1.62318,-3.95819 c 0.358059,-0.43144 0.360282,-0.73178 0.01111,-1.49816 l -0.436743,-0.95855 -0.673459,0.83169 c -0.874762,1.08028 -0.880318,2.16463 -0.01108,2.16463 0.364296,0 0.863886,-0.24283 1.110199,-0.53961 z m 2.093945,-3.85318 c 0.448447,-0.54035 0.191911,-1.95721 -0.354366,-1.95721 -0.497226,0 -1.48416,1.68776 -1.228672,2.10115 0.324182,0.52454 1.085716,0.45529 1.583038,-0.14394 z m 3.014613,-3.72426 c 0.294516,-0.47653 -0.13328,-1.76073 -0.586539,-1.76073 -0.385156,0 -1.677134,1.41027 -1.696731,1.85208 -0.01771,0.39941 2.030614,0.31746 2.28327,-0.0914 z m 2.935283,-3.63342 c 0.06658,-0.35088 0.02357,-0.89203 -0.0956,-1.20254 -0.181829,-0.47384 -0.383049,-0.40515 -1.252015,0.42737 -0.569451,0.54557 -0.946644,1.1355 -0.838207,1.31095 0.347941,0.56298 2.056825,0.1441 2.185822,-0.53578 z m 2.866101,-2.62832 c 0.506007,-0.40973 0.686174,-0.82906 0.530507,-1.23472 -0.308409,-0.8037 -0.487711,-0.77691 -1.747731,0.26109 -0.889212,0.73253 -0.973773,0.9287 -0.529167,1.22757 0.718139,0.48274 0.86257,0.46174 1.746391,-0.25394 z m 3.83329,-3.34829 c 0.130719,-1.13607 -0.118808,-1.19339 -1.430284,-0.32856 -0.762727,0.50297 -0.874893,0.72792 -0.533287,1.06953 0.745684,0.74568 1.840029,0.33272 1.963571,-0.74097 z m 47.072397,0.30266 c 0.91598,-0.69532 0.75984,-1.03357 -0.77449,-1.67782 -1.51982,-0.63815 -1.78315,-0.55403 -1.78315,0.56965 0,1.45865 1.33434,2.03679 2.55764,1.10817 z m -43.685099,-1.48694 c 0.329907,-0.12659 0.558021,-0.62901 0.558021,-1.22901 v -1.01488 l -1.234723,0.58879 c -1.386963,0.6614 -1.513441,0.96628 -0.617361,1.4882 0.754215,0.43929 0.626996,0.42288 1.294063,0.1669 z M 102.5066,232.3585 c 0.37389,-0.28287 0.61202,-0.57513 0.52917,-0.64947 -0.25246,-0.22654 -2.39557,-1.28324 -2.60256,-1.28324 -0.37263,0 -0.19026,1.62643 0.22942,2.04612 0.54836,0.54836 1.00649,0.52018 1.84397,-0.11341 z m -34.936988,-1.78517 c 0.351335,-0.91556 0.249262,-1.20587 -0.423996,-1.20587 -0.901559,0 -1.987342,0.87325 -1.688003,1.3576 0.371136,0.6005 1.864508,0.49322 2.111999,-0.15173 z m 30.726891,-0.019 c 0.317373,-0.31737 0.447773,-0.68409 0.289782,-0.81494 -0.574901,-0.4761 -2.162577,-1.02483 -2.368733,-0.81867 -0.427592,0.42759 -0.194141,1.4802 0.405775,1.82962 0.840567,0.48959 1.007089,0.47008 1.673176,-0.19601 z m -26.33649,-1.85453 c 0.110204,-0.77953 0.03126,-0.82645 -1.032609,-0.61368 -1.403322,0.28066 -1.526409,0.39039 -1.248967,1.11339 0.355723,0.927 2.134975,0.53732 2.281576,-0.49971 z m 22.460034,-0.0404 c 0.237013,-0.3835 -1.231696,-1.05578 -2.306528,-1.05578 -0.76744,0 -0.605286,0.94129 0.28631,1.66203 0.540636,0.43703 1.565515,0.12947 2.020218,-0.60625 z m -18.240191,-0.42078 c 0.887169,-0.88717 0.492061,-1.38495 -0.899584,-1.13335 -1.640476,0.29658 -1.70549,0.35401 -1.153604,1.01899 0.535139,0.6448 1.470639,0.69691 2.053188,0.11436 z M 89.67828,228.1059 c 0.382456,-0.46083 0.374752,-0.61093 -0.045,-0.87654 -0.769716,-0.48706 -2.446761,-0.39979 -2.446761,0.12732 0,1.21197 1.686789,1.71915 2.491758,0.74922 z m -8.853216,-0.48087 c 0.447738,-0.8366 0.104295,-1.08678 -1.249518,-0.9102 -0.567644,0.074 -1.175745,0.14556 -1.35134,0.15893 -0.593569,0.0452 0.952423,1.43542 1.596246,1.43542 0.351158,0 0.803232,-0.30787 1.004612,-0.68415 z m 4.42118,-0.15849 c 0,-0.46562 -0.290456,-0.69722 -0.964561,-0.76909 -1.142019,-0.12176 -1.563808,0.37395 -0.948764,1.11504 0.605769,0.7299 1.913325,0.49348 1.913325,-0.34595 z m 73.201386,68.75275 c -10.02866,-2.02263 -18.04702,-9.73646 -20.24158,-19.47281 -0.71478,-3.17115 -0.73156,-8.7356 -0.0352,-11.68923 1.8309,-7.7665 7.95278,-15.22863 12.49345,-15.22863 0.75911,0 2.25023,0.62571 4.27253,1.79286 4.40616,2.54293 6.71251,3.20838 11.80112,3.40498 3.54739,0.13704 4.9688,0.0193 8.77242,-0.72638 2.4965,-0.48947 4.79837,-0.79918 5.11527,-0.68825 3.16668,1.10845 6.62785,6.98912 5.7144,9.70904 -0.21201,0.63142 -1.57938,2.65615 -3.03858,4.49942 -2.98919,3.77602 -5.16258,7.8924 -5.96032,11.28889 -0.35133,1.49582 -0.54042,4.07727 -0.5438,7.42493 l -0.005,5.13188 -1.32291,1.2851 c -3.1659,3.07539 -10.75383,4.53231 -17.02153,3.2682 z m 7.7132,-21.60611 c 2.10454,-1.56855 2.7872,-4.21282 1.65358,-6.40501 -2.38682,-4.61556 -9.71074,-2.33895 -9.26148,2.87889 0.15375,1.78553 0.7801,2.73686 2.54053,3.85863 1.31174,0.83584 3.71105,0.67841 5.06737,-0.33251 z m 16.24863,-12.29231 c 0.78172,-0.65777 1.08539,-1.21894 1.08539,-2.00573 0,-3.01391 -4.11776,-3.79557 -5.27515,-1.00136 -0.53785,1.29846 0.0628,2.79024 1.3946,3.4639 1.24336,0.62891 1.56788,0.57587 2.79516,-0.45681 z m -9.89397,-11.16999 c -0.31482,-1.01828 -2.89973,-9.07455 -5.74424,-17.90281 -2.84452,-8.82827 -5.81579,-18.23192 -6.60284,-20.897 l -1.43097,-4.84561 0.64886,-1.32335 c 0.73868,-1.50658 2.63183,-2.92015 3.9109,-2.92015 1.20942,0 3.00492,0.91473 3.5693,1.81842 0.26112,0.41815 3.06705,8.39539 6.23538,17.72718 3.16833,9.33179 6.08129,17.84002 6.47322,18.90717 0.9669,2.63258 3.50189,10.7359 3.39669,10.85779 -0.0466,0.0539 -0.51386,-0.0651 -1.03847,-0.26458 -1.33671,-0.50822 -3.56994,-0.44462 -5.8468,0.16652 -2.8618,0.76813 -2.9324,0.74196 -3.57103,-1.32358 z m -7.55205,-41.52723 c 1.94482,-2.149 -1.14988,-5.42002 -3.2294,-3.41342 -0.84402,0.81445 -0.88907,2.15659 -0.10573,3.15241 0.90583,1.15157 2.42182,1.27021 3.33513,0.26101 z m -111.202611,7.17068 c -0.346439,-0.14582 -0.440973,-5.16966 -0.440973,-23.43492 v -23.2493 l -12.082638,-0.0928 -12.082638,-0.0928 v -1.05834 -1.05833 h 25.576388 25.576388 v 1.16454 1.16454 l -12.080117,-0.0266 -12.080119,-0.0266 -0.09071,23.38013 -0.09072,23.38017 -0.881945,0.068 c -0.485069,0.0374 -1.080382,-0.0155 -1.322916,-0.1176 z m 29.708206,-0.21269 c -0.09314,-0.24381 -0.128246,-11.31767 -0.07801,-24.60857 l 0.09133,-24.16528 25.664585,-0.0905 25.66458,-0.0905 v 1.23703 1.23702 H 110.29347 85.775411 v 10.40695 10.40694 h 24.539349 24.53935 l -0.10949,1.32292 -0.10949,1.32292 -24.42986,0.0906 -24.429859,0.0906 v 10.22573 10.22573 l 24.429859,0.0906 24.42986,0.0906 v 1.23472 1.23472 l -25.49837,0.0905 c -20.211636,0.0718 -25.53349,-0.001 -25.667725,-0.35278 z m 54.335955,0.0213 c -0.0976,-0.25554 -0.13642,-11.33898 -0.0862,-24.62988 l 0.0913,-24.16528 h 25.57639 25.57639 v 24.51805 24.51806 l -0.83443,0.11806 c -0.45896,0.0649 -0.97363,-0.0211 -1.14377,-0.19125 -0.17011,-0.17013 -0.329,-10.74045 -0.3531,-23.4896 l -0.0437,-23.18027 h -23.23984 -23.23981 l -0.0907,23.37153 -0.0907,23.37153 -0.97215,0.11182 c -0.56765,0.0653 -1.04601,-0.0815 -1.14966,-0.35278 z m 54.03895,0.18216 c -0.27722,-0.27722 -0.3235,-49.15371 -0.0465,-49.15371 0.2111,0 3.35551,2.43089 6.64076,5.13382 1.1915,0.98033 2.79893,2.25033 3.57198,2.82222 0.77307,0.57189 3.17291,2.46854 5.33301,4.21479 9.95479,8.04768 9.98237,8.06715 10.86576,7.66465 0.44944,-0.20477 2.22857,-1.54 3.95362,-2.96718 1.72505,-1.42718 3.78104,-3.06795 4.56886,-3.64617 0.78779,-0.57821 2.45466,-1.87749 3.70417,-2.88728 13.28162,-10.73374 12.98592,-10.51189 13.21428,-9.9143 0.0969,0.25377 0.13518,11.33577 0.085,24.62667 l -0.0913,24.16528 h -1.23472 -1.23472 l -0.17639,-21.75786 -0.17639,-21.75785 -3.78806,3.06063 c -2.0834,1.68335 -5.62821,4.48939 -7.87731,6.23564 -2.2491,1.74625 -5.38636,4.22129 -6.97167,5.50009 -2.86956,2.31473 -4.12288,3.14296 -4.75608,3.14296 -0.18291,0 -1.66179,-1.07676 -3.28641,-2.3928 -1.62457,-1.31604 -3.29406,-2.62572 -3.70995,-2.91042 -0.41585,-0.28468 -2.14901,-1.62886 -3.85141,-2.98706 -12.28559,-9.80153 -11.98312,-9.5852 -12.28877,-8.78863 -0.11261,0.29339 -0.16697,9.96944 -0.12086,21.50233 0.0688,17.19498 0,21.00132 -0.38598,21.14912 -0.65881,0.25275 -1.66151,0.22436 -1.9408,-0.0549 z m -49.48559,-23.54884 c -0.10685,-0.27848 -0.14206,-0.87506 -0.0782,-1.32574 l 0.1161,-0.81941 h 20.81389 20.81389 v 1.23472 1.23473 l -20.73568,0.091 c -17.74966,0.0779 -20.76365,0.0181 -20.92999,-0.41532 z M -23.345363,70.529266 c -0.556479,-0.408932 -0.593415,-2.222277 -0.508399,-24.959027 l 0.09168,-24.518056 25.2013249,-0.09056 c 19.9276291,-0.07161 25.2602291,0.0022 25.4827921,0.352778 0.154806,0.243838 0.283898,11.337966 0.286869,24.65362 0.0059,26.624738 0.09521,25.542162 -2.04415,24.789864 L 24.215691,70.424142 24.12496,47.23747 24.034229,24.050794 H 1.6353773 -20.763474 v 23.24559 c 0,20.871504 -0.05699,23.267458 -0.558021,23.459722 -0.835501,0.320615 -1.358691,0.261973 -2.023868,-0.22684 z M -127.93736,70.194128 c -0.32098,-0.320986 -0.42333,-6.241676 -0.42333,-24.489202 0,-13.23623 0.0964,-24.316979 0.21413,-24.62389 0.19243,-0.501476 2.71258,-0.55802 24.87083,-0.55802 h 24.656702 v 1.5875 c 0,1.032147 -0.154266,1.58925 -0.440972,1.592503 -0.242535,0.0028 -10.640659,3.53e-4 -23.10694,-0.0049 l -22.66598,-0.0099 v 21.700779 21.700776 h 22.54893 c 12.401908,0 22.800032,0.09636 23.106942,0.214132 0.769327,0.295219 0.769327,2.804294 0,3.099513 -0.30691,0.117775 -11.308284,0.214132 -24.447502,0.214132 -18.11033,0 -23.99188,-0.102407 -24.31281,-0.423333 z m 52.934304,0.189695 c -0.346921,-0.139986 -0.440972,-5.480364 -0.440972,-25.039655 v -24.86172 l 1.499306,0.108479 1.499305,0.108478 0.09301,11.553473 0.09302,11.553472 h 21.333414 21.333413 l 0.09302,-11.553472 0.09301,-11.553473 1.499306,-0.108478 1.499305,-0.108479 v 24.884397 24.884397 l -0.856484,0.214962 c -0.471064,0.11823 -1.185439,0.110557 -1.5875,-0.01704 -0.719705,-0.228438 -0.731015,-0.409025 -0.731015,-11.673533 V 47.334128 h -21.343055 -21.343055 v 11.427534 c 0,10.094983 -0.06507,11.452503 -0.55802,11.641666 -0.641283,0.246084 -1.537723,0.238048 -2.176008,-0.01951 z M 30.199599,69.82605 c -0.09314,-0.243823 -0.128252,-11.317686 -0.07802,-24.608589 l 0.09133,-24.165278 1.499305,-0.108478 1.499306,-0.108479 v 23.301151 23.301152 l 23.900693,0.09066 23.900694,0.09066 v 1.234722 1.234722 l -25.321979,0.09053 c -20.070504,0.07176 -25.357101,-0.0014 -25.491333,-0.352778 z m 53.358272,0.220168 c -0.417611,-0.417614 -0.307065,-49.170424 0.111495,-49.170424 0.19987,0 1.364816,0.833438 2.588772,1.852084 1.223952,1.018645 5.783234,4.665278 10.131738,8.103626 4.348504,3.438349 9.017614,7.130828 10.375814,8.205509 1.35819,1.074677 2.66206,1.912736 2.89748,1.862346 0.39882,-0.08537 13.77404,-10.57498 18.58927,-14.578775 4.66693,-3.880478 6.92253,-5.474706 7.0976,-5.016487 0.0953,0.249503 0.13221,11.328017 0.082,24.618919 l -0.0913,24.165278 h -1.23473 -1.23472 l -0.17639,-21.602612 -0.17639,-21.602608 -2.82222,2.22491 c -16.95737,13.368404 -19.63912,15.403921 -20.29433,15.403921 -0.23642,0 -1.9701,-1.230312 -3.85261,-2.734027 -1.88252,-1.503716 -5.4597,-4.321528 -7.949301,-6.261806 -2.489598,-1.940278 -6.049542,-4.742709 -7.910984,-6.227621 L 86.304578,26.588607 86.128189,48.338451 85.9518,70.088294 84.880788,70.193207 c -0.589058,0.0577 -1.184371,-0.0084 -1.322917,-0.146989 z m 54.238049,-0.222507 c -0.0926,-0.242535 -0.12735,-11.315347 -0.0771,-24.60625 l 0.0913,-24.165278 25.13542,-0.09054 25.13541,-0.09055 v 1.237074 c 0,0.751896 -0.17293,1.238966 -0.44097,1.241905 -0.24253,0.0028 -11.03753,3.53e-4 -23.98889,-0.0048 l -23.54791,-0.0096 v 10.411721 10.411721 h 23.98888 23.98889 v 1.196978 c 0,0.766054 -0.2009,1.274068 -0.55802,1.411111 -0.30692,0.117775 -11.10192,0.214133 -23.98889,0.214133 l -23.43086,-2.8e-5 v 10.230555 10.230556 h 23.43086 c 12.88697,0 23.68197,0.09636 23.98889,0.214132 0.32406,0.124358 0.55802,0.626185 0.55802,1.196979 0,0.570794 -0.23396,1.072621 -0.55802,1.196979 -0.30692,0.117774 -11.58314,0.214132 -25.0583,0.214132 -19.27518,0 -24.53619,-0.09404 -24.66872,-0.440972 z m 97.70472,-4.7625 c -2.67931,-2.86191 -7.1218,-7.584722 -9.8722,-10.495139 -2.75043,-2.910417 -5.43073,-5.805773 -5.95623,-6.434123 l -0.95546,-1.142461 -13.81859,-0.09226 -13.81859,-0.09227 -0.1095,-1.322917 -0.10947,-1.322916 h 25.24489 25.24492 V 33.743194 23.327265 l -25.13542,0.03143 -25.13542,0.0314 -0.1095,-1.257148 -0.10947,-1.257148 h 26.47961 26.47964 v 12.838645 c 0,11.381733 -0.0633,12.862944 -0.55802,13.052778 -0.30692,0.117775 -5.16446,0.214132 -10.79454,0.214132 h -10.23652 l 4.70912,5.023443 c 2.59003,2.762892 7.07221,7.56508 9.9604,10.671528 2.88823,3.106448 5.61912,5.991179 6.0687,6.410515 0.9423,0.878946 0.57915,1.177848 -1.43105,1.177848 -1.04641,0 -1.6649,-0.533065 -6.0373,-5.203473 z m 10.92698,4.702348 c -0.10675,-0.278243 -0.14189,-0.874628 -0.078,-1.325302 l 0.1161,-0.819407 23.54792,-0.0907 23.54791,-0.09069 V 57.211905 46.986352 l -23.54791,-0.09069 -23.54792,-0.0907 V 33.928572 21.052183 h 24.87084 24.87083 l 0.11807,0.83444 c 0.0649,0.458939 -0.0233,0.975868 -0.19625,1.148725 -0.17752,0.177525 -10.47616,0.31465 -23.66595,0.315115 l -23.3517,7.06e-4 v 10.401423 10.40142 l 23.54791,0.0907 23.54792,0.0907 V 57.2118 70.088189 l -24.7928,0.09058 c -21.26439,0.07769 -24.82042,0.01859 -24.98693,-0.415315 z M -19.136315,47.230362 c -0.438549,-0.320675 -0.589852,-0.819369 -0.508399,-1.675695 l 0.115962,-1.219151 H 1.4615249 22.451802 l 0.115962,1.219151 c 0.08145,0.856326 -0.06985,1.35502 -0.508399,1.675695 -0.914393,0.668619 -40.281287,0.668619 -41.19568,0 z"
         id="path128"
         inkscape:connector-curvature="0" />
      <path
         style="fill:#e35400;stroke-width:0.35277778"
         d="M 245.58374,145.22996 V 73.086905 h 24.88872 24.88872 l 6.9597,7.14375 c 3.82785,3.929063 11.63359,11.985625 17.34612,17.903473 5.71253,5.917842 14.91929,15.442842 20.45949,21.166662 5.54016,5.72382 12.12747,12.55007 14.63847,15.16945 2.51097,2.61937 6.80491,7.06437 9.54211,9.87778 19.18515,19.71934 66.67888,69.35934 68.77068,71.87847 l 0.95204,1.14653 h -5.08893 -5.08896 l -7.70159,-7.84931 c -4.23588,-4.31712 -10.89918,-11.10368 -14.80732,-15.08125 -7.38946,-7.52069 -28.50903,-29.29556 -55.86098,-57.59431 -8.76911,-9.07263 -16.22016,-16.78018 -16.55788,-17.12787 -0.33771,-0.3477 -4.42401,-4.58956 -9.08067,-9.42636 -8.18632,-8.50297 -15.56932,-16.135602 -23.6166,-24.415113 l -3.86105,-3.972457 h -18.80492 -18.80493 v 67.73333 67.73334 h -4.58611 -4.58611 z M 12.044858,212.39174 c -2.619375,-2.34287 -5.3974999,-4.84298 -6.173611,-5.5558 -0.7761111,-0.71282 -6.64986091,-5.97038 -13.0527774,-11.68346 -6.4029166,-5.71309 -11.7210416,-10.47533 -11.8180546,-10.58277 -0.09701,-0.10743 -3.192639,-2.88867 -6.879167,-6.18053 -3.686528,-3.29185 -9.164362,-8.20997 -12.172967,-10.92915 -24.163439,-21.83892 -43.297862,-39.14927 -53.443697,-48.34892 -6.596945,-5.98173 -19.364514,-17.55393 -28.372374,-25.716009 -9.00786,-8.162078 -22.59548,-20.475765 -30.1947,-27.363751 -7.59923,-6.887986 -21.61459,-19.587986 -31.14526,-28.222222 l -17.32848,-15.698612 5.29281,-0.09746 c 2.91105,-0.05361 5.50556,0.02575 5.76559,0.176388 0.45372,0.262809 11.42513,9.979703 36.36297,32.205073 6.40292,5.706477 13.35705,11.929389 15.45363,13.828699 2.09657,1.899306 4.95407,4.427004 6.35,5.617104 1.39592,1.190099 3.25241,2.820596 4.12554,3.62332 1.62803,1.496769 9.32786,8.386932 13.24366,11.851044 2.63375,2.329949 7.69719,6.869779 11.80356,10.58296 1.649234,1.491316 4.665484,4.197656 6.702776,6.014086 2.037292,1.81643 7.593541,6.79538 12.347222,11.06435 4.75368,4.26896 10.865555,9.75145 13.581944,12.18331 2.716389,2.43186 5.018263,4.50732 5.115277,4.61213 0.09701,0.10482 3.986389,3.58898 8.643056,7.74259 4.656666,4.15361 9.34219,8.35575 10.412274,9.3381 1.070084,0.98235 3.292584,2.99014 4.938889,4.46176 2.985523,2.66875 11.955296,10.71185 17.625722,15.8048 1.644926,1.4774 3.952819,3.55932 5.128655,4.62647 1.175837,1.06715 3.481236,3.14406 5.123113,4.61536 1.6418808,1.47129 6.4093725,5.75754 10.59442804,9.525 14.26336596,12.84011 16.25726196,14.61103 16.58305296,14.72862 0.198487,0.0716 0.325808,-25.74287 0.325808,-66.05764 V 72.38135 h 5.115277 5.115278 v 72.14306 72.14305 l -5.203472,-0.008 -5.203472,-0.008 -4.7625,-4.25977 z m 221.368052,-48.538 c -0.58209,-0.30877 -3.12209,-2.48759 -5.64445,-4.84182 -4.91402,-4.58647 -17.19114,-15.85586 -27.51666,-25.25807 -3.4925,-3.18019 -7.6067,-6.93937 -9.1427,-8.35373 l -2.79269,-2.57155 h -25.16495 -25.16494 v -4.40972 -4.40972 h 47.97778 47.97777 V 97.604961 81.200794 H 185.9643 137.98652 v -4.233333 -4.233333 h 52.3875 52.3875 v 25.044357 25.044355 l -20.21272,0.0911 -20.21272,0.0911 6.36619,5.9109 c 3.50139,3.251 7.08057,6.58953 7.95369,7.41896 0.87313,0.82943 2.8575,2.67923 4.40972,4.11066 1.55223,1.43144 3.93348,3.65676 5.29167,4.94516 1.35819,1.2884 5.36018,5.00014 8.89332,8.24832 3.53314,3.24818 6.74782,6.36071 7.14375,6.91674 0.40371,0.56697 0.71987,1.56802 0.71987,2.27941 v 1.26846 l -3.0868,0.004 c -1.69774,0.002 -3.64243,0.0722 -4.32153,0.15579 -0.72729,0.0895 -1.66966,-0.0788 -2.29305,-0.4095 z M 30.036524,118.41885 V 72.734128 H 82.600411 135.1643 v 4.233333 4.233333 H 87.010133 38.855968 V 97.604961 114.00913 H 87.010133 135.1643 v 4.40972 4.40972 H 87.010133 38.855968 v 16.22778 16.22778 H 87.010133 135.1643 v 4.40972 4.40972 H 82.600411 30.036524 Z m 228.952766,41.45139 v -4.23333 h 49.80796 49.80791 l 3.35725,3.26319 c 1.84647,1.79476 3.73577,3.69976 4.19841,4.23333 l 0.84119,0.97014 h -54.00636 -54.00636 z"
         id="path120"
         inkscape:connector-curvature="0" />
    </g>
  </g>
</svg>
